<mxfile host="app.diagrams.net" agent="Mozilla/5.0 (Windows NT 10.0; Win64; x64) AppleWebKit/537.36 (KHTML, like Gecko) Chrome/129.0.0.0 Safari/537.36 Edg/129.0.0.0" version="24.8.3">
  <diagram name="Page-1" id="tK4KSnBkHy8aFW0qQ5eC">
    <mxGraphModel dx="1580" dy="1535" grid="0" gridSize="10" guides="1" tooltips="1" connect="1" arrows="1" fold="1" page="0" pageScale="1" pageWidth="850" pageHeight="1100" math="0" shadow="0">
      <root>
        <mxCell id="0" />
        <mxCell id="1" parent="0" />
        <mxCell id="rSKh6CzhYK2FniH9VK9f-1" value="" style="rounded=0;whiteSpace=wrap;html=1;" vertex="1" parent="1">
          <mxGeometry x="588" y="133" width="470" height="275" as="geometry" />
        </mxCell>
        <mxCell id="rSKh6CzhYK2FniH9VK9f-2" value="Space Station" style="text;html=1;align=center;verticalAlign=middle;whiteSpace=wrap;rounded=0;fontSize=16;" vertex="1" parent="1">
          <mxGeometry x="985" y="140" width="60" height="30" as="geometry" />
        </mxCell>
        <mxCell id="rSKh6CzhYK2FniH9VK9f-3" value="Upload Research Data" style="rounded=0;whiteSpace=wrap;html=1;" vertex="1" parent="1">
          <mxGeometry x="916" y="245" width="120" height="60" as="geometry" />
        </mxCell>
        <mxCell id="rSKh6CzhYK2FniH9VK9f-4" value="Make Course Changes" style="rounded=0;whiteSpace=wrap;html=1;" vertex="1" parent="1">
          <mxGeometry x="624" y="153" width="120" height="60" as="geometry" />
        </mxCell>
        <mxCell id="rSKh6CzhYK2FniH9VK9f-26" style="edgeStyle=none;curved=1;rounded=0;orthogonalLoop=1;jettySize=auto;html=1;exitX=0;exitY=1;exitDx=0;exitDy=0;entryX=1;entryY=0;entryDx=0;entryDy=0;fontSize=12;startSize=8;endSize=8;" edge="1" parent="1" source="rSKh6CzhYK2FniH9VK9f-5" target="rSKh6CzhYK2FniH9VK9f-18">
          <mxGeometry relative="1" as="geometry" />
        </mxCell>
        <mxCell id="rSKh6CzhYK2FniH9VK9f-5" value="Send Location and System Metrics" style="rounded=0;whiteSpace=wrap;html=1;" vertex="1" parent="1">
          <mxGeometry x="708" y="245" width="120" height="60" as="geometry" />
        </mxCell>
        <mxCell id="rSKh6CzhYK2FniH9VK9f-6" value="" style="rounded=0;whiteSpace=wrap;html=1;" vertex="1" parent="1">
          <mxGeometry x="693" y="497" width="336" height="329" as="geometry" />
        </mxCell>
        <mxCell id="rSKh6CzhYK2FniH9VK9f-7" value="Database" style="text;html=1;align=center;verticalAlign=middle;whiteSpace=wrap;rounded=0;fontSize=16;" vertex="1" parent="1">
          <mxGeometry x="831" y="503" width="60" height="30" as="geometry" />
        </mxCell>
        <mxCell id="rSKh6CzhYK2FniH9VK9f-8" value="Spacecraft Data" style="rounded=0;whiteSpace=wrap;html=1;" vertex="1" parent="1">
          <mxGeometry x="711" y="563" width="120" height="60" as="geometry" />
        </mxCell>
        <mxCell id="rSKh6CzhYK2FniH9VK9f-9" value="Research Data" style="rounded=0;whiteSpace=wrap;html=1;" vertex="1" parent="1">
          <mxGeometry x="893" y="621" width="120" height="60" as="geometry" />
        </mxCell>
        <mxCell id="rSKh6CzhYK2FniH9VK9f-10" value="Credentials" style="rounded=0;whiteSpace=wrap;html=1;" vertex="1" parent="1">
          <mxGeometry x="814" y="737" width="120" height="60" as="geometry" />
        </mxCell>
        <mxCell id="rSKh6CzhYK2FniH9VK9f-11" value="" style="rounded=0;whiteSpace=wrap;html=1;" vertex="1" parent="1">
          <mxGeometry x="-38" y="737" width="540" height="271" as="geometry" />
        </mxCell>
        <mxCell id="rSKh6CzhYK2FniH9VK9f-12" value="Ground Control" style="text;html=1;align=center;verticalAlign=middle;whiteSpace=wrap;rounded=0;fontSize=16;" vertex="1" parent="1">
          <mxGeometry x="-34" y="740" width="60" height="30" as="geometry" />
        </mxCell>
        <mxCell id="rSKh6CzhYK2FniH9VK9f-27" style="edgeStyle=none;curved=1;rounded=0;orthogonalLoop=1;jettySize=auto;html=1;exitX=0.5;exitY=0;exitDx=0;exitDy=0;entryX=0;entryY=1;entryDx=0;entryDy=0;fontSize=12;startSize=8;endSize=8;" edge="1" parent="1" source="rSKh6CzhYK2FniH9VK9f-18" target="rSKh6CzhYK2FniH9VK9f-4">
          <mxGeometry relative="1" as="geometry" />
        </mxCell>
        <mxCell id="rSKh6CzhYK2FniH9VK9f-18" value="Monitor Spacecraft Data" style="rounded=0;whiteSpace=wrap;html=1;" vertex="1" parent="1">
          <mxGeometry x="358" y="758" width="120" height="60" as="geometry" />
        </mxCell>
        <mxCell id="rSKh6CzhYK2FniH9VK9f-19" value="Login" style="rounded=0;whiteSpace=wrap;html=1;" vertex="1" parent="1">
          <mxGeometry x="362" y="907" width="120" height="60" as="geometry" />
        </mxCell>
        <mxCell id="rSKh6CzhYK2FniH9VK9f-20" value="Login" style="rounded=0;whiteSpace=wrap;html=1;" vertex="1" parent="1">
          <mxGeometry x="814" y="321" width="120" height="60" as="geometry" />
        </mxCell>
        <mxCell id="rSKh6CzhYK2FniH9VK9f-24" value="" style="endArrow=none;html=1;rounded=0;fontSize=12;startSize=8;endSize=8;curved=1;entryX=0;entryY=0.5;entryDx=0;entryDy=0;exitX=1;exitY=0.5;exitDx=0;exitDy=0;" edge="1" parent="1" source="rSKh6CzhYK2FniH9VK9f-19" target="rSKh6CzhYK2FniH9VK9f-10">
          <mxGeometry width="50" height="50" relative="1" as="geometry">
            <mxPoint x="957" y="961" as="sourcePoint" />
            <mxPoint x="1007" y="911" as="targetPoint" />
          </mxGeometry>
        </mxCell>
        <mxCell id="rSKh6CzhYK2FniH9VK9f-25" value="" style="endArrow=none;html=1;rounded=0;fontSize=12;startSize=8;endSize=8;curved=1;entryX=0.5;entryY=1;entryDx=0;entryDy=0;exitX=0.5;exitY=0;exitDx=0;exitDy=0;" edge="1" parent="1" source="rSKh6CzhYK2FniH9VK9f-10" target="rSKh6CzhYK2FniH9VK9f-20">
          <mxGeometry width="50" height="50" relative="1" as="geometry">
            <mxPoint x="967" y="971" as="sourcePoint" />
            <mxPoint x="1017" y="921" as="targetPoint" />
          </mxGeometry>
        </mxCell>
        <mxCell id="rSKh6CzhYK2FniH9VK9f-29" style="edgeStyle=none;curved=1;rounded=0;orthogonalLoop=1;jettySize=auto;html=1;exitX=0.5;exitY=1;exitDx=0;exitDy=0;entryX=0.5;entryY=0;entryDx=0;entryDy=0;fontSize=12;startSize=8;endSize=8;" edge="1" parent="1" source="rSKh6CzhYK2FniH9VK9f-5" target="rSKh6CzhYK2FniH9VK9f-8">
          <mxGeometry relative="1" as="geometry" />
        </mxCell>
        <mxCell id="rSKh6CzhYK2FniH9VK9f-30" style="edgeStyle=none;curved=1;rounded=0;orthogonalLoop=1;jettySize=auto;html=1;exitX=0.25;exitY=1;exitDx=0;exitDy=0;entryX=0;entryY=0;entryDx=0;entryDy=0;fontSize=12;startSize=8;endSize=8;" edge="1" parent="1" source="rSKh6CzhYK2FniH9VK9f-4" target="rSKh6CzhYK2FniH9VK9f-8">
          <mxGeometry relative="1" as="geometry" />
        </mxCell>
        <mxCell id="rSKh6CzhYK2FniH9VK9f-31" value="" style="endArrow=none;html=1;rounded=0;fontSize=12;startSize=8;endSize=8;curved=1;entryX=0;entryY=0.75;entryDx=0;entryDy=0;exitX=0.5;exitY=0;exitDx=0;exitDy=0;" edge="1" parent="1" source="rSKh6CzhYK2FniH9VK9f-20" target="rSKh6CzhYK2FniH9VK9f-3">
          <mxGeometry width="50" height="50" relative="1" as="geometry">
            <mxPoint x="987" y="991" as="sourcePoint" />
            <mxPoint x="1037" y="941" as="targetPoint" />
          </mxGeometry>
        </mxCell>
        <mxCell id="rSKh6CzhYK2FniH9VK9f-35" style="edgeStyle=none;curved=1;rounded=0;orthogonalLoop=1;jettySize=auto;html=1;exitX=0.5;exitY=1;exitDx=0;exitDy=0;entryX=0.5;entryY=0;entryDx=0;entryDy=0;fontSize=12;startSize=8;endSize=8;" edge="1" parent="1" source="rSKh6CzhYK2FniH9VK9f-3" target="rSKh6CzhYK2FniH9VK9f-9">
          <mxGeometry relative="1" as="geometry" />
        </mxCell>
        <mxCell id="rSKh6CzhYK2FniH9VK9f-39" value="" style="endArrow=none;html=1;rounded=0;fontSize=12;startSize=8;endSize=8;curved=1;exitX=0.5;exitY=1;exitDx=0;exitDy=0;entryX=0.5;entryY=0;entryDx=0;entryDy=0;" edge="1" parent="1" source="rSKh6CzhYK2FniH9VK9f-18" target="rSKh6CzhYK2FniH9VK9f-19">
          <mxGeometry width="50" height="50" relative="1" as="geometry">
            <mxPoint x="1027" y="1031" as="sourcePoint" />
            <mxPoint x="1077" y="981" as="targetPoint" />
          </mxGeometry>
        </mxCell>
      </root>
    </mxGraphModel>
  </diagram>
</mxfile>
